<svg width="32" height="32" viewBox="0 0 32 32" fill="none" xmlns="http://www.w3.org/2000/svg">
<path d="M16 17.3333C16.7364 17.3333 17.3333 16.7364 17.3333 16C17.3333 15.2636 16.7364 14.6667 16 14.6667C15.2636 14.6667 14.6667 15.2636 14.6667 16C14.6667 16.7364 15.2636 17.3333 16 17.3333Z" stroke="#B3B3B3" stroke-width="3" stroke-linecap="round" stroke-linejoin="round"/>
<path d="M25.3333 17.3333C26.0697 17.3333 26.6667 16.7364 26.6667 16C26.6667 15.2636 26.0697 14.6667 25.3333 14.6667C24.597 14.6667 24 15.2636 24 16C24 16.7364 24.597 17.3333 25.3333 17.3333Z" stroke="#B3B3B3" stroke-width="3" stroke-linecap="round" stroke-linejoin="round"/>
<path d="M6.66667 17.3333C7.40305 17.3333 8 16.7364 8 16C8 15.2636 7.40305 14.6667 6.66667 14.6667C5.93029 14.6667 5.33333 15.2636 5.33333 16C5.33333 16.7364 5.93029 17.3333 6.66667 17.3333Z" stroke="#B3B3B3" stroke-width="3" stroke-linecap="round" stroke-linejoin="round"/>
</svg>
